<svg id="Layer_1" data-name="Layer 1" xmlns="http://www.w3.org/2000/svg" viewBox="0 0 179 38"><defs><style>.cls-1,.cls-2,.cls-3,.cls-4{fill:#1e61f0;}.cls-2{opacity:0.9;}.cls-3{opacity:0.7;}.cls-4{opacity:0.3;}</style></defs><title>Artboard 13</title><path class="cls-1" d="M7.22,7.59V31a5,5,0,0,0,5,5H30.68a5,5,0,0,0,5-5V7.59Zm14.24,23.3a9.07,9.07,0,1,1,9.07-9.06A9.06,9.06,0,0,1,21.46,30.89Z"/><rect class="cls-1" x="7.22" y="3.81" width="28.47" height="1.89"/><rect class="cls-1" x="7.22" y="0.03" width="28.47" height="1.89"/><path class="cls-1" d="M23.3,16.79l-.07,0,.06,0Z"/><path class="cls-2" d="M30.53,21.82a8.66,8.66,0,0,1-.35,2.46,10.85,10.85,0,0,0-.7-3.18,7.62,7.62,0,0,0-3.38-4,4.74,4.74,0,0,0-2.8-.36,3.63,3.63,0,0,1,1.78-.28,5.88,5.88,0,0,1,3.55,1.92,20.94,20.94,0,0,1,1.84,2.33A9.16,9.16,0,0,1,30.53,21.82Z"/><path class="cls-3" d="M30.18,24.28a9.06,9.06,0,0,1-8.72,6.61,9.54,9.54,0,0,1-1.61-.14,39.21,39.21,0,0,0,4.94-3.12c1.8-1.5,3.24-3.75,2.93-6.07a4.52,4.52,0,0,0-2.47-3.46,4,4,0,0,0-3.49.1l.13-.23c0-.08.1-.14.15-.22a1.63,1.63,0,0,1,.17-.2c.06-.06.12-.13.18-.18l.2-.17,0,0,.16-.12L23,17l.18-.1h0l.08,0,.07,0a4.74,4.74,0,0,1,2.8.36,7.62,7.62,0,0,1,3.38,4A10.85,10.85,0,0,1,30.18,24.28Z"/><path class="cls-4" d="M24.79,27.63a39.21,39.21,0,0,1-4.94,3.12,9.08,9.08,0,0,1-7.24-6.95,12.51,12.51,0,0,0,6.64,1.8,7.25,7.25,0,0,0,4.28-1.26,4,4,0,0,0,1.62-4,2.81,2.81,0,0,0-3.45-2.06.67.67,0,0,0,.06-.12,4,4,0,0,1,3.49-.1,4.52,4.52,0,0,1,2.47,3.46C28,23.88,26.59,26.13,24.79,27.63Z"/><path class="cls-1" d="M38.87,16V2.44h3.71V16Z"/><path class="cls-1" d="M53.33,14.82a5.44,5.44,0,0,1-3.94,1.42,5.47,5.47,0,0,1-4-1.42A5,5,0,0,1,44,11.11,5,5,0,0,1,45.44,7.4a5.47,5.47,0,0,1,4-1.42A5.44,5.44,0,0,1,53.33,7.4a4.91,4.91,0,0,1,1.48,3.71A4.91,4.91,0,0,1,53.33,14.82Zm-5.13-2a1.35,1.35,0,0,0,1.19.63,1.38,1.38,0,0,0,1.19-.63A3.1,3.1,0,0,0,51,11.11a3.13,3.13,0,0,0-.43-1.76,1.39,1.39,0,0,0-1.19-.62,1.37,1.37,0,0,0-1.19.62,3.05,3.05,0,0,0-.43,1.76A3,3,0,0,0,48.2,12.86Z"/><path class="cls-1" d="M65,14.82a6.19,6.19,0,0,1-7.89,0,4.91,4.91,0,0,1-1.48-3.71A4.91,4.91,0,0,1,57.11,7.4,6.19,6.19,0,0,1,65,7.4a4.91,4.91,0,0,1,1.48,3.71A4.91,4.91,0,0,1,65,14.82Zm-5.14-2a1.45,1.45,0,0,0,2.39,0,3.1,3.1,0,0,0,.42-1.75,3.14,3.14,0,0,0-.42-1.76,1.46,1.46,0,0,0-2.39,0,3.14,3.14,0,0,0-.42,1.76A3.1,3.1,0,0,0,59.86,12.86Z"/><path class="cls-1" d="M80.31,6a3.61,3.61,0,0,1,2.77,1A4,4,0,0,1,84,9.82V16H80.31v-5.6c0-1-.36-1.49-1.09-1.49a1.25,1.25,0,0,0-1,.48,2,2,0,0,0-.4,1.34V16H74.09v-5.6c0-1-.36-1.49-1.09-1.49a1.28,1.28,0,0,0-1,.48,2.06,2.06,0,0,0-.4,1.34V16H67.86V6.21H71.3v1.5A3.11,3.11,0,0,1,74.15,6a3.42,3.42,0,0,1,3.08,1.56A3.55,3.55,0,0,1,80.31,6Z"/><path class="cls-1" d="M38.85,33.69V20.44h3.62V33.69Z"/><path class="cls-1" d="M47.58,33.92a4.19,4.19,0,0,1-2.68-.8A2.7,2.7,0,0,1,45,28.84,4.27,4.27,0,0,1,47.72,28a3.62,3.62,0,0,1,2.42.77v-.86a1.16,1.16,0,0,0-1.32-1.3,1.38,1.38,0,0,0-.86.31,1.54,1.54,0,0,0-.55.82L44,27.27a4.52,4.52,0,0,1,1.78-2.46,5.67,5.67,0,0,1,3.33-.92,5.24,5.24,0,0,1,3.47,1,4,4,0,0,1,1.18,3.23v5.57H50.43v-1.1a3.22,3.22,0,0,1-1.25,1A3.84,3.84,0,0,1,47.58,33.92Zm1.09-2.21a1.82,1.82,0,0,0,1.47-.9v-.07a2,2,0,0,0-1.47-.69,1.43,1.43,0,0,0-.85.23.71.71,0,0,0-.31.61.68.68,0,0,0,.32.59A1.46,1.46,0,0,0,48.67,31.71Z"/><path class="cls-1" d="M59.1,33.92a3.54,3.54,0,0,1-2.67-1,3.88,3.88,0,0,1-.93-2.78V24.12h3.62v5.45c0,1,.36,1.47,1.07,1.47a1.24,1.24,0,0,0,1-.46,2,2,0,0,0,.39-1.31V24.12h3.63v9.57H61.85V32.23A3,3,0,0,1,59.1,33.92Z"/><path class="cls-1" d="M67.12,33.69V24.12h3.35v1.47a3.07,3.07,0,0,1,2.79-1.7,3.62,3.62,0,0,1,2.72,1,3.85,3.85,0,0,1,.94,2.79v6H73.3V28.28c0-1-.38-1.51-1.13-1.51a1.28,1.28,0,0,0-1,.48,2,2,0,0,0-.4,1.33v5.11Z"/><path class="cls-1" d="M82.68,33.92a4.19,4.19,0,0,1-3.22-1.38,5.14,5.14,0,0,1-1.28-3.63,5.21,5.21,0,0,1,1.26-3.63,4.06,4.06,0,0,1,3.15-1.39,2.56,2.56,0,0,1,2.63,1.45v-4.9h3.62V33.69H85.49V32a3,3,0,0,1-1.08,1.42A2.9,2.9,0,0,1,82.68,33.92Zm.88-2.69a1.42,1.42,0,0,0,1.18-.66,3.11,3.11,0,0,0,0-3.32,1.45,1.45,0,0,0-2.4-.06,2.93,2.93,0,0,0-.44,1.72,2.9,2.9,0,0,0,.44,1.71A1.41,1.41,0,0,0,83.56,31.23Z"/><path class="cls-1" d="M90.75,33.69V24.12h3.36v1.79a2.83,2.83,0,0,1,2.78-2,2.63,2.63,0,0,1,2,.8A3.06,3.06,0,0,1,99.68,27a6.12,6.12,0,0,1-.33,1.83l-3.22-.34a3.16,3.16,0,0,0,.09-.76c0-.67-.24-1-.72-1a.93.93,0,0,0-.81.53,3.1,3.1,0,0,0-.32,1.57v4.88Z"/><path class="cls-1" d="M103.19,38A3.54,3.54,0,0,1,100,36.12l2.23-1.95c.26.59.58.88,1,.88s.73-.35,1-1l.09-.31h-1l-3.34-9.57h3.81l1.59,5.66,1.54-5.66h3.82L106.68,35a5.18,5.18,0,0,1-1.41,2.29A3.27,3.27,0,0,1,103.19,38Z"/></svg>